<svg width="25" height="24" viewBox="0 0 25 24" fill="none" xmlns="http://www.w3.org/2000/svg">
<g clip-path="url(#clip0_9_28)">
<path fill-rule="evenodd" clip-rule="evenodd" d="M11.9601 15.3193L16.2639 19.6232C16.4151 19.7745 16.5001 19.9798 16.5 20.1938C16.4999 20.4078 16.4148 20.6131 16.2635 20.7643C16.1121 20.9156 15.9068 21.0006 15.6928 21.0005C15.4788 21.0004 15.2736 20.9153 15.1223 20.7639L10.8185 16.46C9.53194 17.4566 7.91407 17.9255 6.29403 17.7715C4.67398 17.6175 3.17346 16.8521 2.09771 15.6309C1.02196 14.4098 0.45179 12.8248 0.503197 11.1982C0.554604 9.57161 1.22372 8.02571 2.37443 6.87497C3.52514 5.72423 5.07101 5.05509 6.69754 5.00369C8.32408 4.95228 9.90911 5.52246 11.1302 6.59823C12.3513 7.67401 13.1167 9.17457 13.2707 10.7947C13.4247 12.4147 12.9558 14.0327 11.9593 15.3193H11.9601ZM6.9003 16.2C8.17328 16.2 9.39412 15.6943 10.2943 14.7942C11.1944 13.894 11.7001 12.6732 11.7001 11.4001C11.7001 10.1271 11.1944 8.90626 10.2943 8.00611C9.39412 7.10595 8.17328 6.60025 6.9003 6.60025C5.62732 6.60025 4.40648 7.10595 3.50634 8.00611C2.60621 8.90626 2.10052 10.1271 2.10052 11.4001C2.10052 12.6732 2.60621 13.894 3.50634 14.7942C4.40648 15.6943 5.62732 16.2 6.9003 16.2Z" fill="#181818"/>
</g>
<defs>
<clipPath id="clip0_9_28">
<rect width="24" height="23.9997" fill="white" transform="translate(0.5)"/>
</clipPath>
</defs>
</svg>
